<svg width="20" height="20" viewBox="0 0 20 20" fill="none" xmlns="http://www.w3.org/2000/svg">
<path d="M7.5 14.7917C7.41667 14.7917 7.34167 14.775 7.25833 14.7417C7.025 14.65 6.875 14.4167 6.875 14.1667V9.16666C6.875 8.82499 7.15833 8.54166 7.5 8.54166C7.84167 8.54166 8.125 8.82499 8.125 9.16666V12.6583L8.725 12.0583C8.96667 11.8167 9.36667 11.8167 9.60833 12.0583C9.85 12.3 9.85 12.7 9.60833 12.9417L7.94167 14.6083C7.825 14.725 7.65833 14.7917 7.5 14.7917Z" fill="#228B22"/>
<path d="M7.50052 14.7917C7.34219 14.7917 7.18385 14.7333 7.05885 14.6083L5.39219 12.9417C5.15052 12.7 5.15052 12.3 5.39219 12.0583C5.63385 11.8167 6.03385 11.8167 6.27552 12.0583L7.94219 13.725C8.18385 13.9667 8.18385 14.3667 7.94219 14.6083C7.81719 14.7333 7.65885 14.7917 7.50052 14.7917Z" fill="#228B22"/>
<path d="M12.4993 18.9583H7.49935C2.97435 18.9583 1.04102 17.025 1.04102 12.5V7.49999C1.04102 2.97499 2.97435 1.04166 7.49935 1.04166H11.666C12.0077 1.04166 12.291 1.32499 12.291 1.66666C12.291 2.00832 12.0077 2.29166 11.666 2.29166H7.49935C3.65768 2.29166 2.29102 3.65832 2.29102 7.49999V12.5C2.29102 16.3417 3.65768 17.7083 7.49935 17.7083H12.4993C16.341 17.7083 17.7077 16.3417 17.7077 12.5V8.33332C17.7077 7.99166 17.991 7.70832 18.3327 7.70832C18.6744 7.70832 18.9577 7.99166 18.9577 8.33332V12.5C18.9577 17.025 17.0243 18.9583 12.4993 18.9583Z" fill="#228B22"/>
<path d="M18.3327 8.95834H14.9993C12.1493 8.95834 11.041 7.85001 11.041 5.00001V1.66668C11.041 1.41668 11.191 1.18334 11.4243 1.09168C11.6577 0.991678 11.9243 1.05001 12.1077 1.22501L18.7743 7.89168C18.9493 8.06668 19.0077 8.34168 18.9077 8.57501C18.8077 8.80834 18.5827 8.95834 18.3327 8.95834ZM12.291 3.17501V5.00001C12.291 7.15001 12.8493 7.70834 14.9993 7.70834H16.8243L12.291 3.17501Z" fill="#228B22"/>
</svg>
