<svg width="20" height="20" viewBox="0 0 20 20" fill="none" xmlns="http://www.w3.org/2000/svg">
<path d="M12.4087 15.1833H5.08365C4.65032 15.1833 4.24198 15.1417 3.87531 15.0583C3.68364 15.0333 3.45032 14.9667 3.20865 14.875C2.10032 14.4583 0.791992 13.4333 0.791992 10.8833V6.59165C0.791992 3.86665 2.35865 2.30002 5.08365 2.30002H12.4087C14.7087 2.30002 16.192 3.39999 16.592 5.39999C16.667 5.76666 16.7003 6.15832 16.7003 6.59165V10.8833C16.7003 13.625 15.142 15.1833 12.4087 15.1833ZM5.09197 3.5667C3.04197 3.5667 2.05031 4.55834 2.05031 6.60834V10.9C2.05031 12.3917 2.57532 13.3084 3.65032 13.7167C3.81699 13.775 3.97533 13.8167 4.12533 13.8417C4.44199 13.9083 4.7503 13.9417 5.09197 13.9417H12.417C14.467 13.9417 15.4586 12.95 15.4586 10.9V6.60834C15.4586 6.25834 15.4337 5.95 15.3753 5.66667C15.092 4.25 14.1253 3.5667 12.417 3.5667H5.09197Z" fill="#228B22"/>
<path d="M14.9083 17.6833H7.58325C6.87491 17.6833 6.24157 17.5833 5.6999 17.375C4.4749 16.9166 3.6749 15.95 3.3999 14.5666C3.35823 14.3583 3.42491 14.1416 3.57492 14C3.72491 13.85 3.94158 13.7916 4.14992 13.8416C4.42492 13.9 4.73325 13.9333 5.08325 13.9333H12.4083C14.4583 13.9333 15.4499 12.9416 15.4499 10.8916V6.59996C15.4499 6.24996 15.4249 5.94162 15.3666 5.65829C15.3249 5.44996 15.3916 5.24163 15.5333 5.09163C15.6833 4.94163 15.8916 4.87495 16.0999 4.92495C18.0999 5.33329 19.1999 6.81663 19.1999 9.09996V13.3916C19.1999 16.125 17.6416 17.6833 14.9083 17.6833ZM4.93325 15.1833C5.19992 15.6666 5.59991 16.0083 6.14991 16.2083C6.54991 16.3583 7.03323 16.4333 7.59156 16.4333H14.9166C16.9666 16.4333 17.9582 15.4416 17.9582 13.3916V9.09996C17.9582 7.78329 17.5499 6.9083 16.7082 6.44997C16.7082 6.49997 16.7082 6.54996 16.7082 6.59996V10.8916C16.7082 13.6166 15.1416 15.1833 12.4166 15.1833H5.09156C5.03323 15.1833 4.98325 15.1833 4.93325 15.1833Z" fill="#228B22"/>
<path d="M8.74982 11.575C7.19148 11.575 5.9248 10.3083 5.9248 8.75C5.9248 7.19167 7.19148 5.92499 8.74982 5.92499C10.3081 5.92499 11.5748 7.19167 11.5748 8.75C11.5748 10.3083 10.3081 11.575 8.74982 11.575ZM8.74982 7.17499C7.88315 7.17499 7.1748 7.88333 7.1748 8.75C7.1748 9.61667 7.88315 10.325 8.74982 10.325C9.61648 10.325 10.3248 9.61667 10.3248 8.75C10.3248 7.88333 9.61648 7.17499 8.74982 7.17499Z" fill="#228B22"/>
<path d="M3.9834 11.2084C3.64173 11.2084 3.3584 10.9251 3.3584 10.5834V6.91672C3.3584 6.57505 3.64173 6.29172 3.9834 6.29172C4.32506 6.29172 4.6084 6.57505 4.6084 6.91672V10.5834C4.6084 10.9251 4.3334 11.2084 3.9834 11.2084Z" fill="#228B22"/>
<path d="M13.5078 11.2084C13.1661 11.2084 12.8828 10.9251 12.8828 10.5834V6.91672C12.8828 6.57505 13.1661 6.29172 13.5078 6.29172C13.8495 6.29172 14.1328 6.57505 14.1328 6.91672V10.5834C14.1328 10.9251 13.8578 11.2084 13.5078 11.2084Z" fill="#292D32"/>
</svg>
