<svg width="20" height="20" viewBox="0 0 20 20" fill="none" xmlns="http://www.w3.org/2000/svg">
<path d="M9.99967 10.625C7.35801 10.625 5.20801 8.47499 5.20801 5.83332C5.20801 3.19166 7.35801 1.04166 9.99967 1.04166C12.6413 1.04166 14.7913 3.19166 14.7913 5.83332C14.7913 8.47499 12.6413 10.625 9.99967 10.625ZM9.99967 2.29166C8.04967 2.29166 6.45801 3.88332 6.45801 5.83332C6.45801 7.78332 8.04967 9.37499 9.99967 9.37499C11.9497 9.37499 13.5413 7.78332 13.5413 5.83332C13.5413 3.88332 11.9497 2.29166 9.99967 2.29166Z" fill="#228B22"/>
<path d="M2.8418 18.9583C2.50013 18.9583 2.2168 18.675 2.2168 18.3333C2.2168 14.775 5.70846 11.875 10.0001 11.875C10.8418 11.875 11.6668 11.9834 12.4668 12.2084C12.8001 12.3 12.9918 12.6417 12.9001 12.975C12.8085 13.3083 12.4668 13.5 12.1335 13.4084C11.4501 13.2167 10.7335 13.125 10.0001 13.125C6.40013 13.125 3.4668 15.4583 3.4668 18.3333C3.4668 18.675 3.18346 18.9583 2.8418 18.9583Z" fill="#228B22"/>
<path d="M15.0003 18.9583C13.617 18.9583 12.317 18.225 11.617 17.0333C11.242 16.4333 11.042 15.725 11.042 15C11.042 13.7833 11.5837 12.6583 12.5253 11.9083C13.2253 11.35 14.1087 11.0417 15.0003 11.0417C17.1837 11.0417 18.9587 12.8167 18.9587 15C18.9587 15.725 18.7587 16.4333 18.3837 17.0417C18.1753 17.3917 17.9086 17.7083 17.592 17.975C16.9003 18.6083 15.9753 18.9583 15.0003 18.9583ZM15.0003 12.2917C14.3837 12.2917 13.8003 12.5 13.3087 12.8916C12.667 13.4 12.292 14.175 12.292 15C12.292 15.4917 12.4253 15.975 12.6837 16.3916C13.167 17.2083 14.0587 17.7083 15.0003 17.7083C15.6587 17.7083 16.292 17.4667 16.7753 17.0333C16.992 16.85 17.1753 16.6333 17.3087 16.4C17.5753 15.975 17.7087 15.4917 17.7087 15C17.7087 13.5083 16.492 12.2917 15.0003 12.2917Z" fill="#228B22"/>
<path d="M14.5251 16.45C14.3667 16.45 14.2084 16.3917 14.0834 16.2667L13.2584 15.4417C13.0167 15.2001 13.0167 14.8 13.2584 14.5584C13.5001 14.3167 13.9001 14.3167 14.1417 14.5584L14.5417 14.9584L15.8751 13.725C16.1251 13.4917 16.525 13.5084 16.7584 13.7584C16.9917 14.0084 16.9751 14.4084 16.7251 14.6417L14.9501 16.2834C14.8251 16.3917 14.6751 16.45 14.5251 16.45Z" fill="#228B22"/>
</svg>
